PathFileType	4	(X/Y/Z)	./resultDataOpenSim/trcMotMarkerGrf/sub06/qtm-15-07.trc
DataRate	CameraRate	NumFrames	NumMarkers	Units	OrigDataRate	OrigDataStartFrame	OrigNumFrames
250.000000	250.000000	11	24	m	250.000000	398	530
Frame#	Time	L.Toe.Tip			R.Toe.Tip			L.Ankle.Lat			R.Ankle.Lat			L.Ankle.Med			R.Ankle.Med			L.Heel			R.Heel			L.Knee.Lat			R.Knee.Lat			L.Knee.Med			R.Knee.Med			L.Thigh.Upper			R.Thigh.Upper			L.ASIS			R.ASIS			V.Sacral			L.Acromium			R.Acromium			C7			L.Elbow			R.Elbow			L.Wrist.Lat			R.Wrist.Lat
		X1	Y1	Z1	X2	Y2	Z2	X3	Y3	Z3	X4	Y4	Z4	X5	Y5	Z5	X6	Y6	Z6	X7	Y7	Z7	X8	Y8	Z8	X9	Y9	Z9	X10	Y10	Z10	X11	Y11	Z11	X12	Y12	Z12	X13	Y13	Z13	X14	Y14	Z14	X15	Y15	Z15	X16	Y16	Z16	X17	Y17	Z17	X18	Y18	Z18	X19	Y19	Z19	X20	Y20	Z20	X21	Y21	Z21	X22	Y22	Z22	X23	Y23	Z23	X24	Y24	Z24

398	1.588	1.6124574	0.11588584	-0.11735066	0.96084488	0.03523243	0.073405143	1.4840727	0.10360805	-0.13980176	0.84249701	0.10050253	0.10056214	1.4816492	0.11728857	-0.055620985	0.8683054	0.11668948	0.014582488	1.4278005	0.047583351	-0.097222495	0.78460623	0.1002839	0.041998658	1.3872739	0.45914084	-0.13519571	1.041663	0.44160407	0.12337253	1.3751448	0.44733046	-0.011365202	1.0187263	0.44010501	-0.0068724711	1.2019874	0.80632891	-0.173811	1.138773	0.79322973	0.16985186	1.2628169	0.85556673	-0.11644115	1.2385074	0.84661783	0.13206034	1.0668621	0.92153113	-0.0081921884	1.1745853	1.3355724	-0.17885062	1.1832348	1.3237762	0.17993462	1.0953837	1.3595919	0.0040563582	1.0600398	1.0494105	-0.22955948	1.3135085	1.0284945	0.24963039	1.1048237	0.8239873	-0.30783672	1.5069776	1.1467722	0.13252461
399	1.592	1.6203104	0.11665537	-0.11723676	0.96099519	0.035251476	0.073493651	1.4922544	0.10308943	-0.140027	0.8435117	0.10164773	0.10107342	1.4891912	0.11635506	-0.055818079	0.86936292	0.11766249	0.015031735	1.4362387	0.046307547	-0.097931671	0.78559221	0.10214155	0.042620376	1.392779	0.4576377	-0.13476944	1.0460002	0.44098783	0.12326297	1.3790597	0.44514047	-0.01094436	1.023146	0.43948537	-0.0068816877	1.2085641	0.80486312	-0.17433478	1.1448885	0.79208687	0.16914543	1.269338	0.85430276	-0.1169826	1.2444626	0.84535342	0.13154914	1.0730089	0.92042801	-0.0090130987	1.1799282	1.3343322	-0.17964716	1.1889553	1.3225531	0.17919227	1.1009501	1.3582774	0.0033328112	1.0646483	1.0485301	-0.2298517	1.3194247	1.0271403	0.24852466	1.1080537	0.82311873	-0.3089115	1.5121643	1.1461112	0.13097093
400	1.596	1.6276782	0.11690332	-0.11706445	0.96116664	0.035257018	0.073589022	1.499869	0.10238632	-0.14014803	0.84460365	0.10285282	0.10156411	1.4962616	0.11528045	-0.055953294	0.87050272	0.11867185	0.015467864	1.4440566	0.044964565	-0.098443145	0.7866597	0.10407279	0.04321405	1.3983106	0.45625296	-0.13438142	1.050488	0.44033388	0.12323742	1.3822805	0.44309977	-0.010661432	1.0276945	0.43884524	-0.0069148288	1.215212	0.80343429	-0.17485731	1.1487573	0.79137388	0.16826948	1.2759273	0.85305948	-0.11754071	1.2504708	0.84409701	0.13104842	1.079192	0.91933877	-0.0098522318	1.1853178	1.3330871	-0.18047881	1.1947054	1.3213233	0.17842805	1.1065506	1.3569601	0.0025848962	1.0693511	1.047619	-0.23015137	1.3252427	1.0257366	0.24743116	1.1114212	0.8222332	-0.30998602	1.517341	1.1452554	0.12943573
401	1.6	1.6345551	0.11664692	-0.11686063	0.96136243	0.035251707	0.073692459	1.5069218	0.10146502	-0.14017469	0.84577943	0.10411309	0.10203325	1.5028836	0.11406337	-0.05601771	0.8717314	0.11972373	0.015906791	1.451256	0.043560507	-0.098772704	0.78780904	0.10608356	0.043786714	1.4038461	0.45494471	-0.13406137	1.0550936	0.43965112	0.12325361	1.3852317	0.44126015	-0.010514358	1.0323866	0.43817446	-0.0069599852	1.2219302	0.80205366	-0.17538117	1.1490513	0.79134531	0.16727738	1.282567	0.85182927	-0.11810325	1.2565314	0.84284928	0.13055516	1.0854437	0.91826385	-0.010722588	1.1907557	1.3318416	-0.18134373	1.200472	1.3200918	0.17764365	1.1121694	1.3556624	0.0017883029	1.0741495	1.0466784	-0.23047048	1.3309706	1.0242823	0.24635317	1.1149238	0.82132892	-0.31105487	1.5225032	1.144223	0.12792892
402	1.604	1.6409277	0.11592506	-0.11665398	0.9615797	0.035242646	0.073803224	1.5134221	0.10030551	-0.14013026	0.84702336	0.10542202	0.10248602	1.5090563	0.11269577	-0.056010746	0.87305547	0.12082185	0.016354829	1.457845	0.042065686	-0.098923775	0.78904562	0.10817973	0.044340124	1.4093773	0.45367436	-0.13383198	1.0597976	0.43894801	0.12324853	1.3886942	0.43968633	-0.010467595	1.0372343	0.43746854	-0.0070013536	1.2287101	0.80072593	-0.17591221	1.1470241	0.79179534	0.16640232	1.2892099	0.85060164	-0.11863732	1.2626439	0.84161533	0.13006869	1.0917701	0.91719934	-0.011630229	1.1962378	1.3305981	-0.18223534	1.2062522	1.3188634	0.17683711	1.117771	1.3544164	0.0009145108	1.0790399	1.045711	-0.2308172	1.3366379	1.022771	0.24529999	1.118573	0.8204042	-0.31211275	1.5276455	1.143028	0.12646217
403	1.608	1.6467905	0.11476058	-0.11645514	0.96181155	0.035237282	0.073919653	1.5193804	0.098895896	-0.14003415	0.84831442	0.1067761	0.1029335	1.5147703	0.11116819	-0.055939449	0.87447511	0.12196609	0.016811072	1.4638373	0.040435692	-0.098913677	0.79038046	0.11036422	0.044875853	1.4149214	0.45241416	-0.13370759	1.064653	0.43822391	0.12319501	1.3929836	0.43835898	-0.010495952	1.0422381	0.43673003	-0.0070332002	1.2355384	0.79945761	-0.17645977	1.1463346	0.79203518	0.16579017	1.2958276	0.84937019	-0.11912272	1.2687996	0.84040096	0.12958438	1.0981437	0.91613544	-0.01255981	1.201756	1.3293595	-0.1831499	1.2120577	1.3176397	0.17600694	1.1233252	1.3532439	-5.1194096e-05	1.0840159	1.0447196	-0.2311904	1.3422464	1.0212055	0.24427709	1.1223785	0.81945725	-0.31315474	1.5327716	1.1416765	0.12503865
404	1.612	1.6521477	0.11316442	-0.11626016	0.96205413	0.035238377	0.074038021	1.5248093	0.097231127	-0.13989384	0.84964914	0.10817952	0.10338746	1.5200274	0.10947644	-0.055818073	0.87599212	0.12315496	0.017273962	1.4692451	0.038643056	-0.098774985	0.79183318	0.11263358	0.045394615	1.4205202	0.45114899	-0.13369081	1.0697867	0.43746279	0.12310234	1.397846	0.43717895	-0.01060119	1.0473876	0.43595663	-0.0070606383	1.2424002	0.7982614	-0.17703416	1.1496621	0.7914965	0.16521842	1.3024299	0.84813707	-0.11956478	1.2749789	0.83920488	0.12908568	1.1045289	0.91506485	-0.013480581	1.2073108	1.3281247	-0.18408923	1.2178916	1.3164211	0.17515382	1.1288681	1.352117	-0.0010861263	1.0890796	1.0437073	-0.2315836	1.3477555	1.019597	0.24328507	1.1263383	0.81848898	-0.31417675	1.5378862	1.1401733	0.12365493
405	1.616	1.6570101	0.11114566	-0.11605541	0.96230838	0.035240578	0.074145907	1.5297268	0.095315596	-0.13971573	0.8510621	0.10964208	0.10385589	1.5248403	0.10762121	-0.055666384	0.87761344	0.12438685	0.017747423	1.4740755	0.036687558	-0.098542375	0.79342601	0.11497835	0.045894369	1.4262132	0.44987836	-0.1337724	1.075298	0.43664551	0.12298813	1.4029648	0.4360516	-0.010792655	1.0526682	0.43513545	-0.0070948739	1.2492823	0.79714679	-0.17764016	1.1566965	0.79018773	0.16438575	1.309041	0.8469075	-0.11998011	1.2811668	0.83801626	0.12855188	1.1108981	0.91398841	-0.014359151	1.2129157	1.326888	-0.18505686	1.2237487	1.3152083	0.17427574	1.1344961	1.350974	-0.0021385676	1.0942449	1.0426797	-0.23199443	1.3531342	1.0179533	0.24231936	1.1304444	0.81750406	-0.3151767	1.5429876	1.1385242	0.12230754
406	1.62	1.6613881	0.10872211	-0.11582268	0.96258066	0.03523574	0.074234046	1.5341526	0.093162869	-0.1395146	0.85261294	0.11117618	0.10434112	1.5292087	0.1056018	-0.055507548	0.87934595	0.12565957	0.018238401	1.4783215	0.034600749	-0.098250591	0.79517645	0.11739359	0.046372183	1.4319905	0.44861339	-0.1339326	1.0811126	0.43577763	0.12287902	1.4082024	0.43493189	-0.011074168	1.0580775	0.43425432	-0.0071408661	1.2561786	0.79611056	-0.17827452	1.1654485	0.78850913	0.16330638	1.3156779	0.84568369	-0.12038596	1.2873713	0.83682415	0.12797195	1.1172368	0.9129093	-0.01517121	1.2185865	1.3256471	-0.18605551	1.2296319	1.3140015	0.17336366	1.1402701	1.3497871	-0.0031755266	1.0995226	1.0416425	-0.2324268	1.3583961	1.0162749	0.24137209	1.1346972	0.8165065	-0.31615612	1.5480707	1.1367301	0.12099451
407	1.624	1.6652872	0.10591096	-0.11553743	0.96288379	0.035222604	0.074320042	1.5381005	0.090789933	-0.13930779	0.85433726	0.11278742	0.10483733	1.5331139	0.10340825	-0.055362071	0.88119307	0.12697344	0.018750456	1.4819374	0.032482312	-0.097953649	0.79709512	0.11988756	0.046828175	1.4377939	0.44736459	-0.13414777	1.0870169	0.43488776	0.12280765	1.4135482	0.43382015	-0.011444134	1.0636476	0.43331423	-0.0071781733	1.2630935	0.79514335	-0.17893456	1.1742606	0.78682649	0.16219875	1.3223481	0.84446491	-0.12079592	1.2936231	0.83563112	0.12736406	1.1235533	0.91182356	-0.015914873	1.2243323	1.324407	-0.18708644	1.2355368	1.3128022	0.17241047	1.1461697	1.3485688	-0.0042050991	1.1049095	1.0405958	-0.23288241	1.3635609	1.0145622	0.24044076	1.1391049	0.81549508	-0.31711733	1.5531287	1.1347864	0.11971765
408	1.628	1.6687159	0.10269724	-0.11515905	0.96322619	0.035205913	0.074436538	1.541578	0.088211004	-0.13910765	0.85621591	0.11446437	0.10534104	1.5365425	0.10102421	-0.055236366	0.88316082	0.12833361	0.019285535	1.4848348	0.030529745	-0.097731213	0.79917135	0.12248052	0.047279942	1.4435741	0.44613398	-0.13440548	1.0928817	0.43399108	0.12278631	1.4190268	0.43273672	-0.01189382	1.0694318	0.43233145	-0.0071643158	1.2700353	0.79423768	-0.17961968	1.1825159	0.78528583	0.16121664	1.3290557	0.84325069	-0.1212207	1.2999351	0.83445398	0.12677282	1.1298758	0.9107214	-0.016619528	1.2301534	1.3231721	-0.18814939	1.241434	1.3116145	0.1714179	1.1521423	1.3473304	-0.0052495473	1.1103933	1.0395322	-0.23335584	1.3686164	1.0128201	0.23953203	1.1436734	0.81446653	-0.318059	1.5581579	1.1326888	0.11848268
